<svg width="40" height="41" viewBox="0 0 40 41" fill="none" xmlns="http://www.w3.org/2000/svg">
<g id="ri:file-paper-2-fill">
<path id="Vector" d="M33.3333 3.83337C34.6594 3.83337 35.9312 4.36016 36.8689 5.29784C37.8065 6.23552 38.3333 7.50729 38.3333 8.83337V12.1667H35V32.1667C35 33.4928 34.4732 34.7646 33.5355 35.7022C32.5978 36.6399 31.3261 37.1667 30 37.1667H6.66666C5.34057 37.1667 4.0688 36.6399 3.13112 35.7022C2.19344 34.7646 1.66666 33.4928 1.66666 32.1667V28.8334H28.3333V32.1667C28.3334 32.5749 28.4832 32.9689 28.7545 33.274C29.0258 33.5791 29.3996 33.7739 29.805 33.8217L30 33.8334C30.4082 33.8333 30.8022 33.6834 31.1073 33.4122C31.4123 33.1409 31.6072 32.7671 31.655 32.3617L31.6667 32.1667V25.5H4.99999V8.83337C4.99999 7.50729 5.52677 6.23552 6.46446 5.29784C7.40214 4.36016 8.67391 3.83337 9.99999 3.83337H33.3333Z" fill="#901A06"/>
</g>
</svg>
