<svg width="21" height="35" viewBox="0 0 21 35" fill="none" xmlns="http://www.w3.org/2000/svg">
<g id="Group">
<path id="Vector" d="M11.8333 7.5H8.49994V9.16667C8.49994 9.60869 8.67553 10.0326 8.98809 10.3452C9.30065 10.6577 9.72458 10.8333 10.1666 10.8333C10.6086 10.8333 11.0326 10.6577 11.3451 10.3452C11.6577 10.0326 11.8333 9.60869 11.8333 9.16667V7.5Z" fill="#901A06"/>
<path id="Vector_2" fill-rule="evenodd" clip-rule="evenodd" d="M0.166626 0.833374V4.16671H1.83329V9.16671C1.83329 11.3768 2.71127 13.4965 4.27407 15.0593C5.83687 16.6221 7.95649 17.5 10.1666 17.5C7.95649 17.5 5.83687 18.378 4.27407 19.9408C2.71127 21.5036 1.83329 23.6232 1.83329 25.8334V30.8334H0.166626V34.1667H20.1666V30.8334H18.5V25.8334C18.5 23.6232 17.622 21.5036 16.0592 19.9408C14.4964 18.378 12.3768 17.5 10.1666 17.5C11.261 17.5 12.3446 17.2845 13.3557 16.8657C14.3667 16.4469 15.2854 15.8331 16.0592 15.0593C16.833 14.2854 17.4468 13.3668 17.8656 12.3557C18.2844 11.3447 18.5 10.2611 18.5 9.16671V4.16671H20.1666V0.833374H0.166626ZM5.16663 4.16671H15.1666V9.16671C15.1666 10.4928 14.6398 11.7646 13.7022 12.7022C12.7645 13.6399 11.4927 14.1667 10.1666 14.1667C8.84054 14.1667 7.56877 13.6399 6.63109 12.7022C5.69341 11.7646 5.16663 10.4928 5.16663 9.16671V4.16671ZM5.16663 25.8334V30.8334H15.1666V25.8334C15.1666 24.5073 14.6398 23.2355 13.7022 22.2978C12.7645 21.3602 11.4927 20.8334 10.1666 20.8334C8.84054 20.8334 7.56877 21.3602 6.63109 22.2978C5.69341 23.2355 5.16663 24.5073 5.16663 25.8334Z" fill="#901A06"/>
</g>
</svg>
