<svg width="41" height="41" viewBox="0 0 41 41" fill="none" xmlns="http://www.w3.org/2000/svg">
<g id="fluent:clipboard-task-list-24-filled">
<path id="Vector" d="M23.75 3.83337H17.9167C16.9943 3.8334 16.1042 4.17339 15.4167 4.78833C14.7292 5.40327 14.2925 6.25002 14.19 7.16671H11.25C10.2554 7.16671 9.30161 7.5618 8.59835 8.26506C7.89509 8.96832 7.5 9.92215 7.5 10.9167V33.4167C7.5 34.4113 7.89509 35.3651 8.59835 36.0684C9.30161 36.7716 10.2554 37.1667 11.25 37.1667H30.4167C30.9091 37.1667 31.3968 37.0697 31.8517 36.8813C32.3067 36.6928 32.7201 36.4166 33.0683 36.0684C33.4165 35.7201 33.6928 35.3067 33.8812 34.8518C34.0697 34.3968 34.1667 33.9092 34.1667 33.4167V10.9167C34.1667 10.4243 34.0697 9.93662 33.8812 9.48164C33.6928 9.02667 33.4165 8.61328 33.0683 8.26506C32.7201 7.91684 32.3067 7.64061 31.8517 7.45216C31.3968 7.2637 30.9091 7.16671 30.4167 7.16671H27.4767C27.3742 6.25002 26.9374 5.40327 26.2499 4.78833C25.5624 4.17339 24.6724 3.8334 23.75 3.83337ZM17.9167 6.33337H23.75C24.0815 6.33337 24.3995 6.46507 24.6339 6.69949C24.8683 6.93391 25 7.25185 25 7.58337C25 7.9149 24.8683 8.23284 24.6339 8.46726C24.3995 8.70168 24.0815 8.83337 23.75 8.83337H17.9167C17.5851 8.83337 17.2672 8.70168 17.0328 8.46726C16.7984 8.23284 16.6667 7.9149 16.6667 7.58337C16.6667 7.25185 16.7984 6.93391 17.0328 6.69949C17.2672 6.46507 17.5851 6.33337 17.9167 6.33337ZM21.6667 17.5834C21.6667 17.2519 21.7984 16.9339 22.0328 16.6995C22.2672 16.4651 22.5851 16.3334 22.9167 16.3334H28.75C29.0815 16.3334 29.3995 16.4651 29.6339 16.6995C29.8683 16.9339 30 17.2519 30 17.5834C30 17.9149 29.8683 18.2328 29.6339 18.4673C29.3995 18.7017 29.0815 18.8334 28.75 18.8334H22.9167C22.5851 18.8334 22.2672 18.7017 22.0328 18.4673C21.7984 18.2328 21.6667 17.9149 21.6667 17.5834ZM22.9167 25.5H28.75C29.0815 25.5 29.3995 25.6317 29.6339 25.8662C29.8683 26.1006 30 26.4185 30 26.75C30 27.0816 29.8683 27.3995 29.6339 27.6339C29.3995 27.8683 29.0815 28 28.75 28H22.9167C22.5851 28 22.2672 27.8683 22.0328 27.6339C21.7984 27.3995 21.6667 27.0816 21.6667 26.75C21.6667 26.4185 21.7984 26.1006 22.0328 25.8662C22.2672 25.6317 22.5851 25.5 22.9167 25.5ZM18.8 16.8L15.4667 20.1334C15.2323 20.3675 14.9146 20.4989 14.5833 20.4989C14.2521 20.4989 13.9344 20.3675 13.7 20.1334L12.0333 18.4667C11.9105 18.3523 11.812 18.2143 11.7437 18.0609C11.6754 17.9076 11.6386 17.7421 11.6357 17.5742C11.6327 17.4064 11.6636 17.2397 11.7265 17.084C11.7893 16.9284 11.8829 16.787 12.0016 16.6683C12.1203 16.5496 12.2617 16.456 12.4173 16.3932C12.573 16.3303 12.7397 16.2994 12.9075 16.3024C13.0754 16.3053 13.2409 16.3421 13.3942 16.4104C13.5476 16.4787 13.6856 16.5772 13.8 16.7L14.5833 17.4834L17.0333 15.0334C17.1478 14.9106 17.2858 14.8121 17.4391 14.7437C17.5924 14.6754 17.758 14.6387 17.9258 14.6357C18.0936 14.6328 18.2603 14.6636 18.416 14.7265C18.5716 14.7894 18.713 14.8829 18.8317 15.0016C18.9504 15.1203 19.044 15.2617 19.1069 15.4174C19.1697 15.573 19.2006 15.7397 19.1977 15.9076C19.1947 16.0754 19.158 16.2409 19.0896 16.3943C19.0213 16.5476 18.9228 16.6856 18.8 16.8ZM18.8 24.2C19.0341 24.4344 19.1656 24.7521 19.1656 25.0834C19.1656 25.4146 19.0341 25.7323 18.8 25.9667L15.4667 29.3C15.2323 29.5341 14.9146 29.6656 14.5833 29.6656C14.2521 29.6656 13.9344 29.5341 13.7 29.3L12.0333 27.6334C11.9105 27.5189 11.812 27.3809 11.7437 27.2276C11.6754 27.0743 11.6386 26.9088 11.6357 26.7409C11.6327 26.5731 11.6636 26.4064 11.7265 26.2507C11.7893 26.0951 11.8829 25.9537 12.0016 25.835C12.1203 25.7163 12.2617 25.6227 12.4173 25.5598C12.573 25.497 12.7397 25.4661 12.9075 25.4691C13.0754 25.472 13.2409 25.5088 13.3942 25.5771C13.5476 25.6454 13.6856 25.7439 13.8 25.8667L14.5833 26.65L17.0333 24.2C17.2677 23.966 17.5854 23.8345 17.9167 23.8345C18.2479 23.8345 18.5656 23.966 18.8 24.2Z" fill="#901A06"/>
</g>
</svg>
