<svg width="40" height="41" viewBox="0 0 40 41" fill="none" xmlns="http://www.w3.org/2000/svg">
<g id="mdi:emoticon-happy">
<path id="Vector" d="M20 3.83337C17.8113 3.83337 15.6441 4.26447 13.622 5.10205C11.5999 5.93963 9.76257 7.16728 8.21493 8.71493C5.08932 11.8405 3.33337 16.0798 3.33337 20.5C3.33337 24.9203 5.08932 29.1595 8.21493 32.2852C9.76257 33.8328 11.5999 35.0605 13.622 35.898C15.6441 36.7356 17.8113 37.1667 20 37.1667C24.4203 37.1667 28.6595 35.4108 31.7852 32.2852C34.9108 29.1595 36.6667 24.9203 36.6667 20.5C36.6667 18.3113 36.2356 16.1441 35.398 14.122C34.5605 12.0999 33.3328 10.2626 31.7852 8.71493C30.2375 7.16728 28.4002 5.93963 26.3781 5.10205C24.356 4.26447 22.1887 3.83337 20 3.83337ZM11.6667 16.3334C11.6667 15 12.8334 13.8334 14.1667 13.8334C15.5 13.8334 16.6667 15 16.6667 16.3334C16.6667 17.6667 15.5 18.8334 14.1667 18.8334C12.8334 18.8334 11.6667 17.6667 11.6667 16.3334ZM20 29.2167C17.0834 29.2167 14.5167 28 13.0167 26.2L15.3834 23.8334C16.1334 25.0334 17.9167 25.8834 20 25.8834C22.0834 25.8834 23.8667 25.0334 24.6167 23.8334L26.9834 26.2C25.4834 28 22.9167 29.2167 20 29.2167ZM25.8334 18.8334C24.5 18.8334 23.3334 17.6667 23.3334 16.3334C23.3334 15 24.5 13.8334 25.8334 13.8334C27.1667 13.8334 28.3334 15 28.3334 16.3334C28.3334 17.6667 27.1667 18.8334 25.8334 18.8334Z" fill="#901A06"/>
</g>
</svg>
