<svg width="79" height="79" viewBox="0 0 79 79" fill="none" xmlns="http://www.w3.org/2000/svg">
<g id="devicon:google">
<path id="Vector" d="M27.5209 2.5982C19.6275 5.33647 12.8203 10.5338 8.09916 17.4268C3.37796 24.3197 0.991627 32.545 1.29066 40.8945C1.58969 49.2439 4.55834 57.2774 9.76054 63.815C14.9627 70.3526 22.1243 75.0496 30.1933 77.2162C36.735 78.9042 43.5888 78.9783 50.1655 77.4322C56.1233 76.0939 61.6315 73.2314 66.1506 69.1248C70.8541 64.7203 74.2681 59.117 76.0256 52.9175C77.936 46.1758 78.2759 39.0859 77.0193 32.1923H40.2843V47.4307H61.5588C61.1336 49.8611 60.2224 52.1808 58.8799 54.2508C57.5373 56.3209 55.7909 58.0988 53.7452 59.4782C51.1473 61.1966 48.2188 62.3529 45.1477 62.8727C42.0676 63.4455 38.9083 63.4455 35.8282 62.8727C32.7064 62.2273 29.7532 60.9388 27.1567 59.0894C22.9855 56.1367 19.8534 51.9419 18.2075 47.1036C16.5338 42.1747 16.5338 36.8312 18.2075 31.9023C19.3791 28.4473 21.3159 25.3017 23.8733 22.7C26.7999 19.668 30.5052 17.5008 34.5825 16.436C38.6597 15.3712 42.9515 15.4501 46.987 16.6639C50.1394 17.6316 53.0221 19.3224 55.4054 21.6014C57.8042 19.2149 60.1989 16.8223 62.5895 14.4235C63.8238 13.1336 65.1693 11.9054 66.3852 10.5846C62.7472 7.19919 58.477 4.56491 53.8192 2.83273C45.3372 -0.247094 36.0564 -0.329862 27.5209 2.5982Z" fill="#F7F3E4"/>
<path id="Vector_2" d="M27.5201 2.59827C36.0549 -0.331782 45.3357 -0.251193 53.8184 2.82663C58.4771 4.57058 62.7453 7.21754 66.3782 10.6155C65.1438 11.9363 63.8416 13.1707 62.5825 14.4544C60.1878 16.845 57.7952 19.2274 55.4046 21.6015C53.0213 19.3224 50.1386 17.6317 46.9862 16.664C42.9521 15.4459 38.6604 15.3625 34.5821 16.4229C30.5037 17.4833 26.7962 19.6466 23.8663 22.6754C21.3089 25.277 19.3721 28.4227 18.2005 31.8776L5.40625 21.9718C9.98583 12.8903 17.9151 5.94358 27.5201 2.59827Z" fill="#E33629"/>
<path id="Vector_3" d="M2.01237 31.785C2.70004 28.3768 3.84173 25.0763 5.4069 21.9717L18.2012 31.9022C16.5275 36.8311 16.5275 42.1747 18.2012 47.1036C13.9385 50.3952 9.67372 53.7033 5.4069 57.0279C1.48869 49.2286 0.2937 40.3423 2.01237 31.785Z" fill="#F8BD00"/>
<path id="Vector_4" d="M40.284 32.1865H77.019C78.2756 39.0801 77.9356 46.1699 76.0253 52.9117C74.2678 59.1112 70.8538 64.7144 66.1503 69.119C62.0213 65.8973 57.8738 62.7003 53.7449 59.4786C55.7919 58.0978 57.5391 56.3179 58.8818 54.2456C60.2244 52.1733 61.1348 49.8513 61.5584 47.4187H40.284C40.2778 42.3454 40.284 37.266 40.284 32.1865Z" fill="#587DBD"/>
<path id="Vector_5" d="M5.40039 57.0279C9.66721 53.7362 13.932 50.4281 18.1947 47.1035C19.8439 51.9435 22.9804 56.1385 27.1562 59.0893C29.7608 60.9301 32.7204 62.2081 35.8463 62.8418C38.9264 63.4145 42.0857 63.4145 45.1658 62.8418C48.2369 62.322 51.1653 61.1657 53.7632 59.4473C57.8922 62.669 62.0397 65.866 66.1687 69.0877C61.6502 73.1965 56.142 76.0612 50.1835 77.4013C43.6068 78.9473 36.753 78.8732 30.2113 77.1852C25.0375 75.8038 20.2047 73.3685 16.016 70.032C11.5825 66.5121 7.96144 62.0763 5.40039 57.0279Z" fill="#319F43"/>
</g>
</svg>
