<svg width="18" height="19" viewBox="0 0 18 19" fill="none" xmlns="http://www.w3.org/2000/svg">
<g id="ic:sharp-fax">
<path id="Vector" d="M16.5 6.89502H13.5V3.14502H6V15.145H16.5V6.89502ZM7.5 4.64502H12V6.89502H7.5V4.64502ZM10.5 12.895H7.5V9.14502H10.5V12.895ZM12 12.895C11.5875 12.895 11.25 12.5575 11.25 12.145C11.25 11.7325 11.5875 11.395 12 11.395C12.4125 11.395 12.75 11.7325 12.75 12.145C12.75 12.5575 12.4125 12.895 12 12.895ZM12 10.645C11.5875 10.645 11.25 10.3075 11.25 9.89502C11.25 9.48252 11.5875 9.14502 12 9.14502C12.4125 9.14502 12.75 9.48252 12.75 9.89502C12.75 10.3075 12.4125 10.645 12 10.645ZM14.25 12.895C13.8375 12.895 13.5 12.5575 13.5 12.145C13.5 11.7325 13.8375 11.395 14.25 11.395C14.6625 11.395 15 11.7325 15 12.145C15 12.5575 14.6625 12.895 14.25 12.895ZM14.25 10.645C13.8375 10.645 13.5 10.3075 13.5 9.89502C13.5 9.48252 13.8375 9.14502 14.25 9.14502C14.6625 9.14502 15 9.48252 15 9.89502C15 10.3075 14.6625 10.645 14.25 10.645ZM1.5 6.14502H5.25V15.895H1.5V6.14502Z" fill="#F7F3E4"/>
</g>
</svg>
