<svg width="20" height="21" viewBox="0 0 20 21" fill="none" xmlns="http://www.w3.org/2000/svg">
<g id="ic:round-phone">
<path id="Vector" d="M16.0245 13.4315L13.9079 13.1898C13.659 13.1606 13.4067 13.1881 13.17 13.2704C12.9333 13.3527 12.7183 13.4875 12.5412 13.6648L11.0079 15.1981C8.6422 13.995 6.71936 12.0722 5.51621 9.70648L7.05788 8.16481C7.41621 7.80648 7.59121 7.30648 7.53288 6.79815L7.29121 4.69815C7.24397 4.29163 7.04887 3.91668 6.74308 3.64469C6.43728 3.37269 6.04214 3.22266 5.63288 3.22315H4.19121C3.24955 3.22315 2.46621 4.00648 2.52455 4.94815C2.96621 12.0648 8.65788 17.7481 15.7662 18.1898C16.7079 18.2481 17.4912 17.4648 17.4912 16.5231V15.0815C17.4995 14.2398 16.8662 13.5315 16.0245 13.4315Z" fill="#F7F3E4"/>
</g>
</svg>
