<svg width="13" height="13" viewBox="0 0 13 13" fill="none" xmlns="http://www.w3.org/2000/svg">
<path d="M6.29531 3.60547C8.01797 3.60547 9.43984 5.02734 9.43984 6.75C9.43984 8.5 8.01797 9.89453 6.29531 9.89453C4.54531 9.89453 3.15078 8.5 3.15078 6.75C3.15078 5.02734 4.54531 3.60547 6.29531 3.60547ZM6.29531 8.80078C7.41641 8.80078 8.31875 7.89844 8.31875 6.75C8.31875 5.62891 7.41641 4.72656 6.29531 4.72656C5.14687 4.72656 4.24453 5.62891 4.24453 6.75C4.24453 7.89844 5.17422 8.80078 6.29531 8.80078ZM10.2875 3.49609C10.2875 3.90625 9.95937 4.23438 9.54922 4.23438C9.13906 4.23438 8.81094 3.90625 8.81094 3.49609C8.81094 3.08594 9.13906 2.75781 9.54922 2.75781C9.95937 2.75781 10.2875 3.08594 10.2875 3.49609ZM12.3656 4.23438C12.4203 5.24609 12.4203 8.28125 12.3656 9.29297C12.3109 10.2773 12.0922 11.125 11.3812 11.8633C10.6703 12.5742 9.79531 12.793 8.81094 12.8477C7.79922 12.9023 4.76406 12.9023 3.75234 12.8477C2.76797 12.793 1.92031 12.5742 1.18203 11.8633C0.471094 11.125 0.252344 10.2773 0.197656 9.29297C0.142969 8.28125 0.142969 5.24609 0.197656 4.23438C0.252344 3.25 0.471094 2.375 1.18203 1.66406C1.92031 0.953125 2.76797 0.734375 3.75234 0.679688C4.76406 0.625 7.79922 0.625 8.81094 0.679688C9.79531 0.734375 10.6703 0.953125 11.3812 1.66406C12.0922 2.375 12.3109 3.25 12.3656 4.23438ZM11.0531 10.3594C11.3812 9.56641 11.2992 7.65234 11.2992 6.75C11.2992 5.875 11.3812 3.96094 11.0531 3.14062C10.8344 2.62109 10.4242 2.18359 9.90469 1.99219C9.08437 1.66406 7.17031 1.74609 6.29531 1.74609C5.39297 1.74609 3.47891 1.66406 2.68594 1.99219C2.13906 2.21094 1.72891 2.62109 1.51016 3.14062C1.18203 3.96094 1.26406 5.875 1.26406 6.75C1.26406 7.65234 1.18203 9.56641 1.51016 10.3594C1.72891 10.9062 2.13906 11.3164 2.68594 11.5352C3.47891 11.8633 5.39297 11.7812 6.29531 11.7812C7.17031 11.7812 9.08437 11.8633 9.90469 11.5352C10.4242 11.3164 10.8617 10.9062 11.0531 10.3594Z" fill="#CACFD3"/>
</svg>
