<svg width="25" height="24" viewBox="0 0 25 24" fill="none" xmlns="http://www.w3.org/2000/svg">
<g id="ion:language-sharp">
<path id="Vector" d="M17.3496 8.25L11.8652 21.75H14.0796L15.2276 19.0312H19.4716L20.6196 21.75H22.834L17.3496 8.25ZM16.0985 16.9688L17.3496 13.118L18.6007 16.9688H16.0985ZM13.084 15C13.0723 14.9911 12.1188 14.2608 10.9549 12.9998C12.8102 10.4855 13.8612 7.6275 14.2901 6.28125H16.834V4.21875H10.3652V2.25H8.30273V4.21875H1.83398V6.28125H12.1113C11.6651 7.54453 10.8434 9.53906 9.58992 11.3606C8.05805 9.32438 7.38023 7.80375 7.37133 7.78781L7.03711 7.125L5.25586 8.15625L5.57789 8.80594C5.61961 8.87906 6.38367 10.5825 8.14242 12.8639C8.18555 12.9206 8.22914 12.9759 8.27273 13.0312C5.94211 15.6966 4.09383 16.7386 4.06992 16.7564L3.33398 17.25L4.41211 18.9375L5.3168 18.3998C5.41992 18.3216 7.25414 17.2748 9.6293 14.6133C10.7787 15.8452 11.6552 16.5272 11.7059 16.5666L12.2871 16.9688L13.084 15Z" fill="#901A06"/>
</g>
</svg>
