<svg width="24" height="24" viewBox="0 0 24 24" fill="none" xmlns="http://www.w3.org/2000/svg">
<g id="material-symbols-light:arrow-forward-rounded">
<path id="Vector" d="M17.079 12.5H5.50001C5.35801 12.5 5.23901 12.4523 5.14301 12.357C5.04701 12.2617 4.99934 12.1427 5.00001 12C5.00067 11.8573 5.04834 11.7383 5.14301 11.643C5.23901 11.5477 5.35801 11.5 5.50001 11.5H17.079L11.64 6.062C11.5427 5.964 11.492 5.849 11.488 5.717C11.484 5.585 11.5367 5.464 11.646 5.354C11.7567 5.24734 11.8747 5.193 12 5.191C12.1253 5.189 12.2433 5.24334 12.354 5.354L18.434 11.434C18.5213 11.5213 18.5827 11.6107 18.618 11.702C18.6533 11.7933 18.671 11.8927 18.671 12C18.671 12.1073 18.6533 12.2067 18.618 12.298C18.5827 12.3893 18.5217 12.4783 18.435 12.565L12.354 18.646C12.2607 18.7393 12.147 18.7893 12.013 18.796C11.879 18.8027 11.7567 18.7527 11.646 18.646C11.536 18.536 11.481 18.417 11.481 18.289C11.481 18.161 11.536 18.0423 11.646 17.933L17.079 12.5Z" fill="#901A06"/>
</g>
</svg>
