<svg width="25" height="24" viewBox="0 0 25 24" fill="none" xmlns="http://www.w3.org/2000/svg">
<path d="M17.579 12.5H6.00001C5.85801 12.5 5.73901 12.4523 5.64301 12.357C5.54701 12.2616 5.49934 12.1426 5.50001 12C5.50067 11.8573 5.54834 11.7383 5.64301 11.643C5.73901 11.5476 5.85801 11.5 6.00001 11.5H17.579L12.14 6.06197C12.0427 5.96397 11.992 5.84897 11.988 5.71697C11.984 5.58497 12.0367 5.46397 12.146 5.35397C12.2567 5.2473 12.3747 5.19297 12.5 5.19097C12.6253 5.18897 12.7433 5.2433 12.854 5.35397L18.934 11.434C19.0213 11.5213 19.0827 11.6106 19.118 11.702C19.1533 11.7933 19.171 11.8926 19.171 12C19.171 12.1073 19.1533 12.2066 19.118 12.298C19.0827 12.3893 19.0217 12.4783 18.935 12.565L12.854 18.646C12.7607 18.7393 12.647 18.7893 12.513 18.796C12.379 18.8026 12.2567 18.7526 12.146 18.646C12.036 18.536 11.981 18.417 11.981 18.289C11.981 18.161 12.036 18.0423 12.146 17.933L17.579 12.5Z" fill="white"/>
</svg>
