<svg width="25" height="24" viewBox="0 0 25 24" fill="none" xmlns="http://www.w3.org/2000/svg">
<g id="material-symbols-light:work">
<path id="Vector" d="M5.28202 20C4.82135 20 4.43702 19.846 4.12902 19.538C3.82102 19.23 3.66668 18.8453 3.66602 18.384V8.616C3.66602 8.15534 3.82035 7.771 4.12902 7.463C4.43768 7.155 4.82168 7.00067 5.28102 7H9.66602V5.615C9.66602 5.155 9.82035 4.77067 10.129 4.462C10.4377 4.15334 10.822 3.99934 11.282 4H14.051C14.511 4 14.8953 4.154 15.204 4.462C15.5127 4.77 15.6667 5.15434 15.666 5.615V7H20.051C20.511 7 20.895 7.15434 21.203 7.463C21.511 7.77167 21.6653 8.156 21.666 8.616V18.385C21.666 18.845 21.5117 19.2293 21.203 19.538C20.8944 19.8467 20.5103 20.0007 20.051 20H5.28202ZM10.666 7H14.666V5.615C14.666 5.46167 14.602 5.32067 14.474 5.192C14.346 5.06334 14.205 4.99934 14.051 5H11.281C11.1277 5 10.9867 5.064 10.858 5.192C10.7293 5.32 10.6653 5.461 10.666 5.615V7Z" fill="#901A06"/>
</g>
</svg>
